PathFileType	4	(X/Y/Z)	/tmp/tmpfnw413rt//results/MarkerData/Run_5.trc
DataRate	CameraRate	NumFrames	NumMarkers	Units	OrigDataRate	OrigDataStartFrame	OrigNumFrames
100	100	8	45	m	100	273	364
Frame#	Time	C7			CLAV			LACR			LASI			LCAL			LFAradius			LFAsuperior			LFAulna			LLEL			LMEL			LMT5			LPSH			LPSI			LTB1			LTB2			LTB3			LTH1			LTH2			LTH3			LTOE			LUA1			LUA2			LUA3			RACR			RASI			RCAL			RFAradius			RFAsuperior			RFAulna			RLEL			RLMAL			RMEL			RMMAL			RMT5			RPSI			RTB1			RTB2			RTB3			RTH1			RTH2			RTH3			RTOE			RUA1			RUA2			RUA3		
		X1	Y1	Z1	X2	Y2	Z2	X3	Y3	Z3	X4	Y4	Z4	X5	Y5	Z5	X6	Y6	Z6	X7	Y7	Z7	X8	Y8	Z8	X9	Y9	Z9	X10	Y10	Z10	X11	Y11	Z11	X12	Y12	Z12	X13	Y13	Z13	X14	Y14	Z14	X15	Y15	Z15	X16	Y16	Z16	X17	Y17	Z17	X18	Y18	Z18	X19	Y19	Z19	X20	Y20	Z20	X21	Y21	Z21	X22	Y22	Z22	X23	Y23	Z23	X24	Y24	Z24	X25	Y25	Z25	X26	Y26	Z26	X27	Y27	Z27	X28	Y28	Z28	X29	Y29	Z29	X30	Y30	Z30	X31	Y31	Z31	X32	Y32	Z32	X33	Y33	Z33	X34	Y34	Z34	X35	Y35	Z35	X36	Y36	Z36	X37	Y37	Z37	X38	Y38	Z38	X39	Y39	Z39	X40	Y40	Z40	X41	Y41	Z41	X42	Y42	Z42	X43	Y43	Z43	X44	Y44	Z44	X45	Y45	Z45

274	2.81	0.82885	1.57353	-0.310386	0.943466	1.48464	-0.275776	0.901889	1.57606	-0.455183	0.917343	1.04758	-0.452719	0.281019	0.580855	-0.309796	0.983949	1.30695	-0.447199	0.89002	1.22653	-0.573271	1.01052	1.24559	-0.463266	0.832117	1.2667	-0.641657	0.771758	1.24893	-0.572931	0.196588	0.448138	-0.415081	0.824531	1.53992	-0.487884	0.756488	1.0904	-0.385899	0.596512	0.476379	-0.425738	0.489867	0.562664	-0.422975	0.40597	0.49001	-0.388531	0.760025	0.837293	-0.487522	0.800726	0.712712	-0.484238	0.724916	0.634138	-0.463433	0.211598	0.374789	-0.364531	0.846091	1.46199	-0.555434	0.78389	1.38496	-0.56392	0.819798	1.34426	-0.61717	0.85542	1.53224	-0.153481	0.917191	1.06679	-0.221964	1.04069	0.113304	-0.311363	0.835515	1.17198	-0.0644724	0.641582	1.2223	-0.0446968	0.802813	1.11711	-0.0419169	0.609036	1.29539	-0.0482409	1.09359	0.131116	-0.239625	0.609101	1.2786	-0.135719	1.1144	0.164892	-0.316554	1.19353	0.0625042	-0.220625	0.755018	1.09038	-0.294707	1.09394	0.437284	-0.238903	1.0649	0.372394	-0.198495	1.11248	0.255202	-0.249478	0.899206	0.807833	-0.159834	0.997136	0.771543	-0.180092	0.970704	0.655651	-0.191077	1.26306	0.103029	-0.283606	0.745981	1.42629	-0.0781154	0.665098	1.40335	-0.12305	0.634686	1.35832	-0.0800964
275	2.82	0.829939	1.56591	-0.30855	0.945001	1.47658	-0.276015	0.90108	1.56917	-0.454579	0.914608	1.04003	-0.452536	0.305101	0.592763	-0.313107	0.981174	1.28997	-0.454549	0.88013	1.21894	-0.580688	1.00408	1.2281	-0.473283	0.822448	1.2647	-0.645738	0.763058	1.24706	-0.576371	0.218159	0.462362	-0.419151	0.822726	1.53345	-0.485544	0.753171	1.08268	-0.38358	0.615752	0.470015	-0.428683	0.513799	0.562118	-0.426615	0.42661	0.494694	-0.391412	0.764097	0.825788	-0.486866	0.810866	0.703184	-0.485882	0.73959	0.621616	-0.464802	0.230591	0.388697	-0.368394	0.841637	1.45791	-0.555068	0.778372	1.38254	-0.564656	0.812674	1.34212	-0.619366	0.859487	1.52243	-0.15168	0.916352	1.05926	-0.222131	1.00416	0.104697	-0.313896	0.846927	1.15837	-0.0611601	0.653099	1.20752	-0.0364523	0.815065	1.1035	-0.0374155	0.619488	1.28043	-0.0390912	1.06006	0.120611	-0.241623	0.616633	1.26357	-0.125786	1.08027	0.151205	-0.319478	1.15492	0.0541421	-0.221496	0.75339	1.08372	-0.293554	1.07876	0.424122	-0.24135	1.04688	0.360363	-0.200778	1.08611	0.240733	-0.252156	0.897107	0.801662	-0.162254	0.994066	0.766735	-0.184509	0.964187	0.64859	-0.192805	1.2277	0.086042	-0.286742	0.753314	1.41359	-0.0731485	0.671146	1.38954	-0.115404	0.643058	1.34382	-0.0716515
276	2.83	0.83111	1.55705	-0.306882	0.946791	1.46755	-0.276556	0.900054	1.56113	-0.454443	0.911686	1.03158	-0.451377	0.331571	0.601343	-0.317671	0.977175	1.27227	-0.463414	0.869009	1.21085	-0.588703	0.99641	1.21012	-0.484935	0.811589	1.26199	-0.649988	0.753571	1.24438	-0.579685	0.242576	0.471852	-0.422961	0.820776	1.5257	-0.483426	0.749364	1.07491	-0.380994	0.637614	0.462995	-0.43182	0.53984	0.559597	-0.430798	0.450021	0.496819	-0.39484	0.768991	0.813519	-0.486611	0.822162	0.693301	-0.487509	0.755842	0.608674	-0.466374	0.253543	0.398372	-0.371716	0.836445	1.45256	-0.554596	0.772213	1.37889	-0.564922	0.804369	1.33915	-0.621607	0.863804	1.51203	-0.150104	0.914819	1.05079	-0.22149	0.960026	0.0986422	-0.317385	0.859706	1.14387	-0.0581416	0.666114	1.19173	-0.0280219	0.828792	1.08896	-0.0333708	0.631276	1.26429	-0.0296202	1.01943	0.114331	-0.245525	0.624528	1.2478	-0.115347	1.03857	0.140347	-0.32467	1.10964	0.052285	-0.222121	0.750129	1.07714	-0.291907	1.06234	0.412037	-0.246415	1.02714	0.35001	-0.205636	1.05491	0.228167	-0.257691	0.893515	0.795753	-0.163227	0.989904	0.760737	-0.189778	0.958315	0.641165	-0.195055	1.18512	0.0746085	-0.289545	0.761487	1.39972	-0.067904	0.678118	1.37434	-0.107458	0.652606	1.32795	-0.0626828
277	2.84	0.832514	1.54756	-0.305238	0.949	1.45783	-0.277262	0.898898	1.55237	-0.454862	0.908498	1.02256	-0.449407	0.360163	0.606522	-0.323624	0.971754	1.25427	-0.473494	0.856631	1.20272	-0.596993	0.987456	1.19215	-0.497981	0.799515	1.25888	-0.654178	0.743443	1.24104	-0.582789	0.269652	0.476404	-0.426653	0.818739	1.51716	-0.481693	0.745162	1.06745	-0.378977	0.662244	0.455928	-0.434329	0.567794	0.555415	-0.435484	0.476002	0.49641	-0.398404	0.774582	0.801057	-0.486269	0.834403	0.683748	-0.488825	0.773738	0.596192	-0.467925	0.279685	0.403622	-0.374192	0.830706	1.44611	-0.554137	0.765476	1.37411	-0.564603	0.794764	1.33557	-0.623726	0.868215	1.50162	-0.148514	0.911707	1.04201	-0.220076	0.911782	0.0963474	-0.321418	0.873848	1.1288	-0.0556194	0.680654	1.17517	-0.0197861	0.843994	1.07378	-0.0298575	0.644647	1.24717	-0.0201588	0.974344	0.113121	-0.250894	0.634016	1.23112	-0.105223	0.993258	0.134734	-0.33112	1.06094	0.0542816	-0.222934	0.745758	1.07097	-0.290507	1.0452	0.40323	-0.253677	1.00615	0.344008	-0.21247	1.0209	0.220423	-0.264927	0.888246	0.790857	-0.162579	0.984347	0.754193	-0.194117	0.953692	0.634693	-0.197635	1.13813	0.0690691	-0.291514	0.770458	1.38494	-0.0627321	0.686113	1.358	-0.0993605	0.663489	1.31087	-0.0533795
278	2.85	0.834248	1.53862	-0.303536	0.95149	1.44809	-0.278052	0.897795	1.54362	-0.45572	0.904479	1.0137	-0.44747	0.389758	0.608329	-0.330976	0.964879	1.23635	-0.48439	0.843076	1.19521	-0.605067	0.977191	1.17466	-0.512096	0.786348	1.25598	-0.657915	0.732724	1.23749	-0.585422	0.299151	0.475588	-0.430337	0.816685	1.50879	-0.480362	0.739659	1.06065	-0.377804	0.689624	0.449617	-0.435478	0.597325	0.550283	-0.440396	0.504298	0.49383	-0.401812	0.780663	0.789683	-0.485421	0.847436	0.675816	-0.489528	0.79341	0.585601	-0.469337	0.308652	0.40417	-0.37573	0.824628	1.43916	-0.553689	0.758077	1.36861	-0.563603	0.783842	1.33181	-0.625419	0.872576	1.4919	-0.146709	0.906544	1.03383	-0.21778	0.862765	0.0973108	-0.324944	0.889489	1.11371	-0.0536778	0.696903	1.15821	-0.0121328	0.860766	1.05847	-0.0269624	0.660017	1.22949	-0.0110252	0.927957	0.115565	-0.25609	0.646285	1.21345	-0.095962	0.947946	0.134172	-0.336885	1.01166	0.0565326	-0.224285	0.740519	1.06531	-0.290165	1.02724	0.397991	-0.261421	0.984	0.342638	-0.219365	0.985905	0.217828	-0.27146	0.88189	0.78684	-0.161624	0.977564	0.748398	-0.196497	0.949589	0.630098	-0.200132	1.08963	0.0670959	-0.292921	0.780267	1.36973	-0.05823	0.695179	1.34105	-0.0912128	0.675756	1.29308	-0.0440817
279	2.86	0.836231	1.53143	-0.301854	0.953822	1.43919	-0.278963	0.897067	1.53561	-0.456711	0.89918	1.00593	-0.446579	0.41851	0.606815	-0.33938	0.956693	1.21889	-0.495655	0.828602	1.189	-0.612434	0.965585	1.15822	-0.526842	0.772437	1.25406	-0.660697	0.721451	1.23448	-0.587184	0.330759	0.469056	-0.434085	0.814816	1.50177	-0.479332	0.73265	1.0547	-0.377368	0.719486	0.444914	-0.435167	0.627885	0.545126	-0.445	0.534438	0.489658	-0.404954	0.787062	0.780936	-0.484112	0.861345	0.67107	-0.489474	0.814881	0.578495	-0.470508	0.340376	0.399833	-0.37652	0.818482	1.43275	-0.553062	0.749981	1.36332	-0.561738	0.771859	1.32867	-0.626223	0.87692	1.4835	-0.144867	0.899858	1.02712	-0.214388	0.814293	0.0996126	-0.32712	0.906827	1.09951	-0.0524877	0.715216	1.14156	-0.00542804	0.879291	1.04393	-0.024873	0.677696	1.21204	-0.00262929	0.881715	0.118991	-0.259605	0.661525	1.1954	-0.087687	0.903394	0.136016	-0.34059	0.962683	0.0571806	-0.225935	0.734653	1.06006	-0.291115	1.00716	0.394032	-0.268062	0.959964	0.342886	-0.224722	0.950037	0.217521	-0.275737	0.874581	0.782606	-0.16162	0.969434	0.743567	-0.197332	0.943397	0.626532	-0.202294	1.04104	0.0660928	-0.294028	0.790948	1.35506	-0.0550046	0.705251	1.32447	-0.0832575	0.689361	1.27553	-0.0353472
280	2.87	0.838157	1.52658	-0.300359	0.95552	1.43182	-0.280138	0.896857	1.52887	-0.457546	0.893014	1.00009	-0.447055	0.444779	0.601903	-0.348083	0.94736	1.20254	-0.506768	0.813569	1.18461	-0.618764	0.952578	1.14348	-0.541599	0.758276	1.25384	-0.662101	0.709776	1.23292	-0.587691	0.364124	0.456994	-0.437907	0.813246	1.49699	-0.478454	0.72546	1.04976	-0.377388	0.751251	0.442491	-0.434032	0.658682	0.540702	-0.448765	0.565638	0.484431	-0.407803	0.79377	0.775712	-0.482901	0.876402	0.670645	-0.488796	0.837874	0.575947	-0.471273	0.374897	0.390737	-0.377021	0.812517	1.42803	-0.552049	0.741467	1.35946	-0.558813	0.759415	1.32712	-0.625692	0.881435	1.47687	-0.143516	0.892968	1.02208	-0.210188	0.76583	0.101376	-0.327819	0.925825	1.08753	-0.0525467	0.735765	1.12643	-2.72949e-05	0.89964	1.03155	-0.0239688	0.697416	1.19609	0.00449911	0.835112	0.121349	-0.261085	0.678728	1.17835	-0.0803909	0.858086	0.137376	-0.342241	0.913474	0.056624	-0.227088	0.728768	1.05535	-0.292643	0.983082	0.388159	-0.273092	0.932693	0.340728	-0.228316	0.912008	0.215836	-0.27801	0.865605	0.777159	-0.162662	0.959249	0.738197	-0.197666	0.931912	0.621759	-0.204365	0.992211	0.0649593	-0.294646	0.802324	1.34237	-0.0532779	0.716108	1.30949	-0.0760747	0.704143	1.25952	-0.0278289
281	2.88	0.839595	1.52373	-0.299148	0.956396	1.42633	-0.281698	0.896705	1.52375	-0.458132	0.887254	0.996654	-0.44823	0.468069	0.593357	-0.356154	0.936919	1.1882	-0.517149	0.798253	1.18229	-0.623879	0.938149	1.13115	-0.555515	0.744272	1.25566	-0.662011	0.697974	1.23354	-0.586768	0.398902	0.440348	-0.441771	0.811647	1.49463	-0.477541	0.719921	1.04632	-0.377401	0.784093	0.442676	-0.432925	0.688843	0.537342	-0.451452	0.596997	0.478493	-0.41031	0.800953	0.773836	-0.482455	0.892743	0.674766	-0.48786	0.861823	0.578072	-0.47154	0.412144	0.377439	-0.377853	0.806721	1.42569	-0.550656	0.733061	1.35811	-0.554866	0.747263	1.32788	-0.6237	0.886244	1.47222	-0.143089	0.887149	1.01807	-0.20624	0.716516	0.102006	-0.327633	0.945886	1.07944	-0.0546378	0.758011	1.11424	0.00371849	0.921484	1.02304	-0.0248947	0.718075	1.18299	0.00989423	0.787203	0.122344	-0.261244	0.696293	1.16401	-0.074242	0.810786	0.13724	-0.342758	0.863431	0.0560875	-0.227121	0.723729	1.05172	-0.293491	0.953842	0.378881	-0.27664	0.901035	0.334486	-0.230786	0.870736	0.21133	-0.279359	0.854336	0.770689	-0.163987	0.946315	0.730387	-0.198021	0.913758	0.614227	-0.206699	0.942517	0.0639041	-0.294499	0.813916	1.33293	-0.052684	0.727376	1.29719	-0.0704439	0.719676	1.24643	-0.0220163
